control3min_grf.mot
version=1
nRows=15
nColumns 19
inDegrees=yes
endheader
time	1_ground_force_vx	1_ground_force_vy	1_ground_force_vz	1_ground_force_px	1_ground_force_py	1_ground_force_pz	1_ground_torque_x	1_ground_torque_y	1_ground_torque_z	2_ground_force_vx	2_ground_force_vy	2_ground_force_vz	2_ground_force_px	2_ground_force_py	2_ground_force_pz	2_ground_torque_x	2_ground_torque_y	2_ground_torque_z
            2.502500	            0.183825	            1.260716	            0.280091	           -0.233013	            0.005581	           -0.255695	            0.269192	            0.286369	            0.083526	            0.986342	           -0.731702	           -0.378471	           -0.232311	            0.006130	           -0.833667	           -0.262072	           -0.274540	           -0.151668
            2.503000	            0.457726	            1.983601	           -0.130203	           -0.233013	            0.005581	           -0.255695	            0.267429	            0.111179	            0.019289	            0.422129	           -0.181120	           -0.423189	           -0.232311	            0.006130	           -0.833667	           -0.262285	           -0.217757	           -0.170316
            2.503500	            0.274843	            1.802513	            0.052903	           -0.233013	            0.005581	           -0.255695	            0.316226	           -0.249624	            0.066203	            0.137021	            0.922923	           -0.466056	           -0.232311	            0.006130	           -0.833667	           -0.300529	           -0.028906	           -0.150775
            2.504000	            0.229129	            2.342908	            0.147047	           -0.233013	            0.005581	           -0.255695	            0.255444	           -0.415632	           -0.030322	           -0.004337	            1.107735	           -0.793835	           -0.232311	            0.006130	           -0.833667	           -0.338706	            0.141040	           -0.131302
            2.504500	            0.229293	            1.441580	            0.143183	           -0.233013	            0.005581	           -0.255695	            0.312277	           -0.332350	           -0.048872	            0.141632	           -0.365781	           -0.564511	           -0.232311	            0.006130	           -0.833667	           -0.244770	            0.132128	           -0.187926
            2.505000	            0.138159	            2.161445	            0.421637	           -0.233013	            0.005581	           -0.255695	            0.225115	           -0.027689	            0.023908	            0.141612	           -0.365613	           -0.611439	           -0.232311	            0.006130	           -0.833667	           -0.337963	           -0.076036	           -0.226328
            2.505500	            0.275801	            2.161275	            0.467152	           -0.233013	            0.005581	           -0.255695	            0.279397	            0.231282	            0.011949	            0.514561	            0.187013	           -0.281131	           -0.232311	            0.006130	           -0.833667	           -0.337231	           -0.265493	           -0.113902
            2.506000	            0.413300	            1.080101	            0.370461	           -0.233013	            0.005581	           -0.255695	            0.227746	            0.240495	            0.036818	            0.703146	           -0.179435	           -0.611021	           -0.232311	            0.006130	           -0.833667	           -0.205707	           -0.274404	           -0.132842
            2.506500	            0.504693	            1.441043	            0.280068	           -0.233013	            0.005581	           -0.255695	            0.212981	            0.027449	            0.152626	            0.750763	           -0.364251	           -0.377058	           -0.232311	            0.006130	           -0.833667	           -0.224791	           -0.189465	           -0.113680
            2.507000	            0.320539	            1.982984	            0.007706	           -0.233013	            0.005581	           -0.255695	            0.355519	           -0.240193	            0.030498	            0.701837	            0.188694	           -0.562779	           -0.232311	            0.006130	           -0.833667	           -0.375577	           -0.057468	           -0.169694
            2.507500	            0.274648	            1.622641	           -0.039582	           -0.233013	            0.005581	           -0.255695	            0.264010	           -0.397613	            0.084503	           -0.239210	            1.290703	           -0.699223	           -0.232311	            0.006130	           -0.833667	           -0.357423	            0.122067	           -0.131361
            2.508000	            0.182929	            1.802889	           -0.038581	           -0.233013	            0.005581	           -0.255695	            0.226131	           -0.277175	            0.006005	           -0.049111	            0.554452	           -0.608074	           -0.232311	            0.006130	           -0.833667	           -0.282272	            0.113087	           -0.187977
            2.508500	            0.000028	            2.342667	            0.193472	           -0.233013	            0.005581	           -0.255695	            0.215933	            0.027779	           -0.000500	            0.045233	            0.370809	           -0.655699	           -0.232311	            0.006130	           -0.833667	           -0.244019	           -0.075831	           -0.188668
            2.509000	            0.092253	            1.260501	            0.326175	           -0.233013	            0.005581	           -0.255695	            0.248275	            0.249674	            0.004319	            0.751407	           -0.548232	           -0.424643	           -0.232311	            0.006130	           -0.833667	           -0.243593	           -0.189398	           -0.151372
            2.509500	            0.413022	            1.981626	            0.328470	           -0.233013	            0.005581	           -0.255695	            0.360526	            0.240519	            0.036456	            0.652308	            0.925286	           -0.607059	           -0.232311	            0.006130	           -0.833667	           -0.205586	           -0.321264	           -0.246112
